<?xml version="1.0" encoding="utf-8"?>
<!-- Generator: Adobe Illustrator 24.2.3, SVG Export Plug-In . SVG Version: 6.00 Build 0)  -->
<svg version="1.1" id="Layer_1" xmlns="http://www.w3.org/2000/svg" xmlns:xlink="http://www.w3.org/1999/xlink" x="0px" y="0px"
	 viewBox="0 0 175.43 28.3" style="enable-background:new 0 0 175.43 28.3;" xml:space="preserve">
<g>
	<path d="M11.72,20.07c-0.27,0.27-0.56,0.52-0.89,0.76c-0.32,0.24-0.67,0.44-1.04,0.61c-0.37,0.17-0.76,0.31-1.18,0.41
		C8.2,21.95,7.77,22,7.32,22c-1.03,0-1.99-0.2-2.88-0.59c-0.89-0.39-1.66-0.93-2.32-1.61c-0.66-0.68-1.18-1.47-1.55-2.39
		C0.19,16.5,0,15.52,0,14.49c0-1.05,0.19-2.02,0.56-2.94c0.37-0.91,0.89-1.71,1.55-2.39c0.66-0.68,1.43-1.22,2.32-1.61
		c0.89-0.39,1.85-0.59,2.88-0.59c0.93,0,1.75,0.17,2.46,0.5c0.71,0.33,1.34,0.78,1.89,1.36V3.56c0-0.2,0.06-0.36,0.18-0.49
		c0.12-0.13,0.3-0.19,0.53-0.19h1.88c0.18,0,0.34,0.06,0.49,0.19c0.15,0.13,0.23,0.29,0.23,0.5v17.48c0,0.46-0.24,0.69-0.73,0.69
		h-1.72c-0.23,0-0.39-0.06-0.47-0.17c-0.08-0.11-0.16-0.29-0.23-0.51L11.72,20.07z M3.22,14.49c0,0.61,0.11,1.19,0.32,1.73
		c0.21,0.55,0.51,1.02,0.89,1.43c0.38,0.41,0.83,0.73,1.35,0.96c0.52,0.24,1.08,0.36,1.69,0.36c0.6,0,1.17-0.12,1.71-0.35
		c0.53-0.23,1-0.55,1.4-0.95c0.4-0.4,0.71-0.87,0.94-1.4c0.23-0.53,0.36-1.1,0.37-1.7v-0.08c0-0.6-0.11-1.18-0.34-1.73
		c-0.23-0.55-0.54-1.03-0.94-1.45c-0.4-0.42-0.86-0.75-1.4-1c-0.54-0.25-1.12-0.37-1.73-0.37c-0.61,0-1.17,0.12-1.69,0.37
		c-0.52,0.25-0.96,0.58-1.35,1c-0.38,0.42-0.68,0.9-0.89,1.45C3.32,13.31,3.22,13.88,3.22,14.49z"/>
	<path d="M29.24,20.13c-0.67,0.57-1.41,1.02-2.2,1.35c-0.8,0.33-1.67,0.49-2.63,0.49c-1.03,0-2.01-0.19-2.93-0.58
		c-0.92-0.39-1.73-0.92-2.43-1.6c-0.69-0.68-1.25-1.47-1.65-2.39s-0.61-1.9-0.61-2.95c0-0.68,0.08-1.34,0.25-1.97
		c0.17-0.63,0.41-1.23,0.72-1.78c0.31-0.55,0.69-1.06,1.13-1.52c0.44-0.46,0.94-0.86,1.48-1.18c0.55-0.33,1.14-0.58,1.77-0.76
		c0.64-0.18,1.31-0.27,2.02-0.27c0.58,0,1.15,0.07,1.72,0.21c0.56,0.14,1.1,0.34,1.61,0.6c0.51,0.26,0.98,0.57,1.43,0.94
		c0.44,0.37,0.83,0.79,1.17,1.25c0.46,0.64,0.79,1.33,1.01,2.07c0.21,0.74,0.32,1.56,0.32,2.46c0,0.22-0.01,0.41-0.03,0.56
		c-0.02,0.15-0.07,0.27-0.14,0.36c-0.08,0.09-0.19,0.16-0.34,0.2c-0.15,0.04-0.37,0.06-0.64,0.06H20.09
		c0.1,0.55,0.29,1.04,0.57,1.46c0.28,0.42,0.61,0.78,0.99,1.08c0.38,0.29,0.8,0.52,1.25,0.66s0.9,0.22,1.35,0.22
		c0.34,0,0.67-0.03,0.99-0.1c0.32-0.07,0.61-0.16,0.89-0.27c0.27-0.11,0.53-0.25,0.76-0.39c0.23-0.15,0.44-0.3,0.61-0.46
		c0-0.01,0-0.01,0.01-0.01c0.09-0.08,0.18-0.15,0.26-0.2c0.08-0.05,0.17-0.07,0.26-0.07c0.07,0,0.15,0.02,0.23,0.07
		c0.09,0.05,0.17,0.12,0.26,0.23c0.21,0.25,0.38,0.46,0.53,0.63c0.14,0.17,0.26,0.31,0.35,0.42c0.09,0.11,0.16,0.21,0.2,0.3
		c0.04,0.08,0.06,0.17,0.06,0.25C29.68,19.7,29.53,19.92,29.24,20.13z M24.16,9.8c-0.45,0-0.89,0.08-1.32,0.25
		c-0.43,0.16-0.82,0.39-1.17,0.67c-0.36,0.28-0.66,0.62-0.93,1c-0.26,0.38-0.46,0.79-0.58,1.24h8.11c-0.12-0.47-0.31-0.89-0.56-1.28
		c-0.25-0.39-0.55-0.72-0.9-1c-0.35-0.28-0.75-0.49-1.2-0.65C25.16,9.88,24.68,9.8,24.16,9.8z"/>
	<path d="M32.16,8.12c-0.02-0.06-0.03-0.11-0.04-0.16c-0.01-0.05-0.02-0.1-0.03-0.15c-0.01-0.05-0.01-0.1-0.01-0.14
		c0-0.15,0.05-0.26,0.15-0.35c0.1-0.09,0.26-0.13,0.46-0.13h2.06c0.18,0,0.33,0.05,0.45,0.14c0.11,0.09,0.21,0.22,0.27,0.39
		l0.21,0.52c0.15,0.44,0.33,0.92,0.52,1.47c0.19,0.54,0.39,1.1,0.6,1.68c0.21,0.58,0.41,1.15,0.62,1.72c0.21,0.57,0.4,1.1,0.58,1.6
		c0.18,0.5,0.35,0.94,0.49,1.33c0.14,0.39,0.26,0.68,0.34,0.89c0.13-0.37,0.28-0.8,0.45-1.29c0.17-0.48,0.36-1,0.56-1.55
		c0.2-0.55,0.4-1.11,0.61-1.69c0.21-0.58,0.41-1.15,0.61-1.71c0.2-0.56,0.39-1.09,0.57-1.6c0.18-0.51,0.34-0.97,0.49-1.38
		c0.08-0.18,0.17-0.31,0.28-0.39c0.11-0.08,0.26-0.12,0.45-0.12H45c0.24,0,0.4,0.04,0.49,0.11c0.09,0.08,0.13,0.18,0.13,0.3
		c0,0.06-0.01,0.14-0.03,0.23c-0.02,0.09-0.04,0.16-0.05,0.21l-5.45,13.24c-0.06,0.11-0.14,0.21-0.22,0.31
		c-0.09,0.1-0.25,0.15-0.49,0.15h-1.05c-0.27,0-0.46-0.05-0.56-0.14c-0.1-0.1-0.17-0.2-0.21-0.32L32.16,8.12z"/>
	<path d="M58.71,20.13c-0.67,0.57-1.41,1.02-2.2,1.35c-0.8,0.33-1.67,0.49-2.63,0.49c-1.03,0-2.01-0.19-2.93-0.58
		c-0.92-0.39-1.73-0.92-2.43-1.6c-0.69-0.68-1.25-1.47-1.65-2.39s-0.61-1.9-0.61-2.95c0-0.68,0.08-1.34,0.25-1.97
		c0.17-0.63,0.41-1.23,0.72-1.78c0.31-0.55,0.69-1.06,1.13-1.52c0.44-0.46,0.94-0.86,1.48-1.18c0.55-0.33,1.14-0.58,1.77-0.76
		c0.64-0.18,1.31-0.27,2.02-0.27c0.58,0,1.15,0.07,1.72,0.21c0.56,0.14,1.1,0.34,1.61,0.6c0.51,0.26,0.98,0.57,1.43,0.94
		c0.44,0.37,0.83,0.79,1.17,1.25c0.46,0.64,0.79,1.33,1.01,2.07c0.21,0.74,0.32,1.56,0.32,2.46c0,0.22-0.01,0.41-0.03,0.56
		c-0.02,0.15-0.07,0.27-0.14,0.36c-0.08,0.09-0.19,0.16-0.34,0.2c-0.15,0.04-0.37,0.06-0.64,0.06H49.57
		c0.1,0.55,0.29,1.04,0.57,1.46s0.61,0.78,0.99,1.08c0.38,0.29,0.8,0.52,1.25,0.66s0.9,0.22,1.35,0.22c0.34,0,0.67-0.03,0.99-0.1
		c0.32-0.07,0.61-0.16,0.89-0.27c0.27-0.11,0.53-0.25,0.76-0.39c0.23-0.15,0.44-0.3,0.61-0.46c0-0.01,0-0.01,0.01-0.01
		c0.09-0.08,0.18-0.15,0.26-0.2c0.08-0.05,0.17-0.07,0.26-0.07c0.07,0,0.15,0.02,0.23,0.07c0.09,0.05,0.17,0.12,0.26,0.23
		c0.21,0.25,0.38,0.46,0.53,0.63c0.14,0.17,0.26,0.31,0.35,0.42c0.09,0.11,0.16,0.21,0.2,0.3c0.04,0.08,0.06,0.17,0.06,0.25
		C59.15,19.7,59,19.92,58.71,20.13z M53.63,9.8c-0.45,0-0.89,0.08-1.32,0.25c-0.43,0.16-0.82,0.39-1.17,0.67
		c-0.36,0.28-0.66,0.62-0.93,1c-0.26,0.38-0.46,0.79-0.58,1.24h8.11c-0.12-0.47-0.31-0.89-0.56-1.28c-0.25-0.39-0.55-0.72-0.9-1
		c-0.35-0.28-0.75-0.49-1.2-0.65C54.63,9.88,54.15,9.8,53.63,9.8z"/>
	<path d="M62.89,3.56c0-0.2,0.05-0.36,0.16-0.49c0.11-0.13,0.27-0.19,0.49-0.19h2c0.15,0,0.3,0.06,0.43,0.19
		c0.13,0.13,0.2,0.29,0.2,0.49v17.48c0,0.23-0.06,0.4-0.19,0.51c-0.13,0.11-0.3,0.17-0.51,0.17h-1.91c-0.24,0-0.42-0.06-0.52-0.17
		c-0.1-0.11-0.15-0.29-0.15-0.51V3.56z"/>
	<path d="M68.15,14.49c0-0.69,0.09-1.36,0.27-2.01c0.18-0.64,0.43-1.25,0.76-1.8c0.33-0.56,0.72-1.06,1.18-1.52
		c0.46-0.45,0.96-0.84,1.52-1.17c0.56-0.32,1.15-0.58,1.79-0.76c0.64-0.18,1.3-0.27,2-0.27c0.69,0,1.35,0.09,1.99,0.27
		c0.64,0.18,1.24,0.43,1.79,0.76C80,8.31,80.51,8.7,80.96,9.16c0.46,0.45,0.85,0.96,1.18,1.52c0.33,0.56,0.58,1.16,0.76,1.8
		c0.18,0.65,0.27,1.31,0.27,2.01c0,0.69-0.09,1.36-0.27,2c-0.18,0.64-0.43,1.24-0.76,1.79c-0.33,0.55-0.72,1.06-1.18,1.52
		c-0.46,0.46-0.96,0.85-1.52,1.17c-0.55,0.32-1.15,0.58-1.79,0.76c-0.64,0.18-1.3,0.27-1.99,0.27c-0.69,0-1.36-0.09-2-0.27
		c-0.64-0.18-1.23-0.43-1.79-0.76c-0.56-0.32-1.06-0.72-1.52-1.17c-0.46-0.46-0.85-0.96-1.18-1.52c-0.33-0.55-0.58-1.15-0.76-1.79
		C68.24,15.85,68.15,15.18,68.15,14.49z M71.38,14.49c0,0.61,0.11,1.19,0.32,1.73c0.21,0.55,0.51,1.02,0.89,1.43
		c0.38,0.41,0.83,0.73,1.36,0.96c0.52,0.24,1.09,0.36,1.71,0.36c0.6,0,1.16-0.12,1.68-0.36c0.52-0.24,0.96-0.56,1.33-0.96
		c0.37-0.4,0.67-0.88,0.88-1.43c0.21-0.55,0.31-1.12,0.31-1.73c0-0.6-0.11-1.18-0.31-1.73c-0.21-0.55-0.5-1.03-0.88-1.45
		c-0.37-0.42-0.82-0.75-1.33-1c-0.52-0.25-1.07-0.37-1.68-0.37c-0.62,0-1.19,0.12-1.71,0.37c-0.52,0.25-0.98,0.58-1.36,1
		c-0.38,0.42-0.68,0.9-0.89,1.45S71.38,13.88,71.38,14.49z"/>
	<path d="M85.52,7.26c0.1-0.05,0.2-0.07,0.3-0.09c0.1-0.01,0.2-0.02,0.3-0.02h1.16c0.23,0,0.39,0.06,0.49,0.19
		c0.1,0.13,0.16,0.29,0.2,0.49l0.24,1.4c0.27-0.31,0.55-0.6,0.85-0.87c0.3-0.27,0.64-0.52,1-0.73c0.37-0.21,0.77-0.38,1.21-0.51
		c0.44-0.13,0.94-0.19,1.49-0.19c0.69,0,1.36,0.09,1.99,0.27c0.63,0.18,1.22,0.43,1.76,0.76c0.55,0.32,1.04,0.71,1.48,1.17
		c0.44,0.45,0.82,0.96,1.14,1.52c0.32,0.56,0.56,1.16,0.73,1.8c0.17,0.64,0.26,1.31,0.26,2c0,0.69-0.09,1.36-0.26,2
		c-0.17,0.64-0.42,1.24-0.73,1.8c-0.32,0.56-0.7,1.06-1.14,1.52c-0.44,0.46-0.94,0.85-1.48,1.17c-0.55,0.32-1.14,0.58-1.77,0.76
		c-0.63,0.18-1.29,0.27-1.98,0.27c-0.5,0-0.95-0.05-1.37-0.16c-0.42-0.11-0.8-0.25-1.16-0.44c-0.35-0.19-0.68-0.4-0.98-0.65
		c-0.3-0.25-0.59-0.51-0.85-0.8v5.58c0,0.18-0.06,0.34-0.17,0.47c-0.11,0.13-0.29,0.19-0.52,0.19h-1.9c-0.16,0-0.32-0.06-0.48-0.18
		c-0.16-0.12-0.23-0.28-0.23-0.49V7.83c0-0.16,0.04-0.29,0.11-0.38C85.29,7.36,85.39,7.3,85.52,7.26z M96.87,14.45
		c0-0.6-0.11-1.18-0.33-1.72s-0.52-1.02-0.89-1.43c-0.38-0.41-0.83-0.73-1.35-0.97c-0.52-0.24-1.08-0.36-1.68-0.36
		s-1.17,0.12-1.7,0.35c-0.53,0.24-1,0.56-1.4,0.96c-0.4,0.4-0.72,0.87-0.96,1.4c-0.24,0.53-0.36,1.1-0.37,1.69v0.08
		c0,0.61,0.12,1.19,0.35,1.74c0.23,0.55,0.55,1.03,0.95,1.44c0.4,0.41,0.87,0.74,1.41,0.98c0.54,0.24,1.11,0.37,1.72,0.37
		c0.6,0,1.16-0.12,1.68-0.37s0.97-0.57,1.35-0.98c0.38-0.41,0.68-0.89,0.89-1.44C96.76,15.64,96.87,15.06,96.87,14.45z"/>
	<path d="M113.94,20.13c-0.67,0.57-1.41,1.02-2.2,1.35c-0.8,0.33-1.67,0.49-2.63,0.49c-1.03,0-2.01-0.19-2.93-0.58
		c-0.92-0.39-1.73-0.92-2.43-1.6c-0.69-0.68-1.25-1.47-1.65-2.39c-0.41-0.91-0.61-1.9-0.61-2.95c0-0.68,0.08-1.34,0.25-1.97
		c0.17-0.63,0.41-1.23,0.72-1.78c0.31-0.55,0.69-1.06,1.13-1.52c0.44-0.46,0.94-0.86,1.48-1.18c0.55-0.33,1.14-0.58,1.77-0.76
		c0.64-0.18,1.31-0.27,2.02-0.27c0.58,0,1.15,0.07,1.72,0.21c0.56,0.14,1.1,0.34,1.61,0.6c0.51,0.26,0.98,0.57,1.43,0.94
		c0.44,0.37,0.83,0.79,1.17,1.25c0.46,0.64,0.79,1.33,1.01,2.07c0.21,0.74,0.32,1.56,0.32,2.46c0,0.22-0.01,0.41-0.03,0.56
		c-0.02,0.15-0.07,0.27-0.14,0.36c-0.08,0.09-0.19,0.16-0.34,0.2c-0.15,0.04-0.37,0.06-0.64,0.06h-10.16
		c0.1,0.55,0.29,1.04,0.57,1.46c0.28,0.42,0.61,0.78,0.99,1.08c0.38,0.29,0.8,0.52,1.25,0.66c0.45,0.15,0.9,0.22,1.35,0.22
		c0.34,0,0.67-0.03,0.99-0.1c0.32-0.07,0.61-0.16,0.89-0.27c0.27-0.11,0.53-0.25,0.76-0.39c0.23-0.15,0.44-0.3,0.61-0.46
		c0-0.01,0-0.01,0.01-0.01c0.09-0.08,0.18-0.15,0.26-0.2c0.08-0.05,0.17-0.07,0.26-0.07c0.07,0,0.15,0.02,0.23,0.07
		c0.09,0.05,0.17,0.12,0.26,0.23c0.21,0.25,0.38,0.46,0.53,0.63c0.14,0.17,0.26,0.31,0.35,0.42c0.09,0.11,0.16,0.21,0.2,0.3
		c0.04,0.08,0.06,0.17,0.06,0.25C114.37,19.7,114.23,19.92,113.94,20.13z M108.85,9.8c-0.45,0-0.89,0.08-1.32,0.25
		c-0.43,0.16-0.82,0.39-1.17,0.67c-0.36,0.28-0.66,0.62-0.93,1c-0.26,0.38-0.46,0.79-0.58,1.24h8.11c-0.12-0.47-0.31-0.89-0.56-1.28
		c-0.25-0.39-0.55-0.72-0.9-1c-0.35-0.28-0.75-0.49-1.2-0.65C109.86,9.88,109.37,9.8,108.85,9.8z"/>
	<path d="M118.09,7.87c0-0.22,0.07-0.39,0.22-0.5c0.15-0.11,0.31-0.17,0.49-0.17h1.46c0.19,0,0.34,0.06,0.44,0.17
		c0.1,0.11,0.18,0.26,0.23,0.42c0.05,0.17,0.09,0.35,0.11,0.54c0.02,0.19,0.05,0.37,0.08,0.53c0.17-0.24,0.36-0.47,0.57-0.69
		c0.21-0.23,0.45-0.43,0.72-0.6c0.27-0.18,0.57-0.32,0.9-0.42c0.34-0.11,0.72-0.16,1.15-0.16c0.38,0,0.72,0.03,1.03,0.07
		c0.31,0.05,0.6,0.13,0.88,0.23c0.28,0.1,0.55,0.24,0.82,0.4c0.27,0.16,0.55,0.36,0.86,0.58c0.13,0.08,0.24,0.18,0.34,0.29
		c0.1,0.11,0.14,0.23,0.14,0.38c-0.01,0.06-0.02,0.13-0.03,0.19c-0.02,0.07-0.05,0.14-0.09,0.21l-0.94,1.49
		c-0.06,0.08-0.13,0.13-0.21,0.17c-0.08,0.03-0.15,0.05-0.21,0.05c-0.12,0-0.24-0.03-0.36-0.09c-0.25-0.14-0.48-0.27-0.69-0.39
		c-0.21-0.12-0.41-0.23-0.61-0.31c-0.2-0.09-0.4-0.16-0.61-0.21c-0.21-0.05-0.44-0.07-0.7-0.07c-0.68,0-1.25,0.22-1.72,0.65
		c-0.47,0.43-0.78,1.03-0.94,1.8v8.63c0,0.46-0.24,0.69-0.71,0.69h-1.88c-0.48,0-0.71-0.23-0.71-0.69V7.87z"/>
	<path d="M128.75,8.12c-0.02-0.06-0.03-0.11-0.04-0.16c-0.01-0.05-0.02-0.1-0.03-0.15c-0.01-0.05-0.01-0.1-0.01-0.14
		c0-0.15,0.05-0.26,0.15-0.35c0.1-0.09,0.26-0.13,0.46-0.13h2.06c0.36,0,0.6,0.18,0.72,0.53c0.14,0.4,0.3,0.87,0.5,1.41
		c0.19,0.54,0.4,1.11,0.62,1.72c0.22,0.6,0.44,1.21,0.67,1.83c0.23,0.61,0.44,1.19,0.65,1.74c0.2,0.55,0.39,1.03,0.55,1.47
		c0.16,0.43,0.29,0.76,0.38,0.98c0.34-0.97,0.78-2.21,1.32-3.72s1.19-3.32,1.96-5.43c0.07-0.18,0.16-0.31,0.28-0.39
		c0.12-0.08,0.27-0.12,0.45-0.12h1.99c0.24,0,0.4,0.04,0.49,0.11c0.09,0.08,0.13,0.18,0.13,0.3c0,0.06-0.01,0.14-0.03,0.23
		c-0.02,0.09-0.04,0.16-0.05,0.21l-1.19,2.9c0.15,0.38,0.33,0.81,0.53,1.28c0.2,0.47,0.42,0.96,0.64,1.48
		c0.22,0.52,0.45,1.04,0.68,1.57c0.22,0.53,0.44,1.05,0.64,1.56c0.14-0.37,0.3-0.79,0.49-1.27c0.19-0.48,0.38-0.99,0.58-1.53
		c0.2-0.54,0.41-1.1,0.63-1.67c0.22-0.57,0.43-1.14,0.64-1.69c0.21-0.55,0.41-1.08,0.6-1.59c0.19-0.5,0.36-0.96,0.52-1.36
		c0.07-0.18,0.16-0.31,0.26-0.39c0.11-0.08,0.25-0.12,0.42-0.12h1.9c0.22,0,0.39,0.03,0.5,0.1c0.11,0.06,0.17,0.18,0.17,0.34
		c0,0.05-0.01,0.13-0.02,0.22c-0.02,0.09-0.03,0.16-0.05,0.19l-5.4,13.24c-0.03,0.05-0.06,0.11-0.1,0.16
		c-0.03,0.05-0.08,0.1-0.14,0.15c-0.06,0.05-0.13,0.08-0.22,0.11c-0.09,0.03-0.19,0.04-0.32,0.04h-0.98c-0.27,0-0.45-0.05-0.55-0.15
		c-0.1-0.1-0.18-0.21-0.24-0.32c-0.45-1.09-0.9-2.17-1.34-3.25c-0.44-1.07-0.89-2.15-1.33-3.25l-2.63,6.5
		c-0.06,0.11-0.14,0.21-0.22,0.31c-0.09,0.1-0.25,0.15-0.49,0.15h-1.05c-0.27,0-0.46-0.05-0.56-0.14c-0.1-0.1-0.17-0.2-0.21-0.32
		L128.75,8.12z"/>
	<path d="M151.27,2.82c0-0.46,0.23-0.69,0.68-0.69h1.92c0.21,0,0.39,0.06,0.52,0.17c0.13,0.11,0.19,0.29,0.19,0.52v1.71
		c0,0.18-0.06,0.34-0.18,0.5c-0.12,0.16-0.29,0.24-0.51,0.24h-1.92c-0.46,0-0.69-0.24-0.69-0.73V2.82z M151.27,7.89
		c0-0.2,0.06-0.36,0.17-0.5c0.11-0.13,0.28-0.2,0.5-0.2h1.9c0.08,0,0.17,0.02,0.26,0.05c0.09,0.03,0.17,0.08,0.23,0.15
		c0.07,0.06,0.13,0.14,0.17,0.22c0.05,0.08,0.07,0.18,0.07,0.28v13.16c0,0.46-0.24,0.69-0.72,0.69h-1.9c-0.46,0-0.69-0.23-0.69-0.69
		V7.89z"/>
	<path d="M157.62,3.56c0-0.2,0.04-0.36,0.12-0.49c0.08-0.13,0.27-0.19,0.58-0.19h1.96c0.22,0,0.38,0.07,0.48,0.2
		c0.1,0.13,0.15,0.28,0.15,0.43v9.45l5.04-5.45c0.1-0.1,0.2-0.18,0.3-0.23c0.1-0.05,0.23-0.08,0.37-0.08h2.62
		c0.17,0,0.29,0.03,0.38,0.1c0.08,0.07,0.13,0.16,0.13,0.28c0,0.08-0.01,0.15-0.03,0.21s-0.06,0.13-0.13,0.21l-5.14,5.37l6.1,7.53
		h-0.02c0.08,0.08,0.14,0.18,0.18,0.28c0.03,0.1,0.05,0.18,0.05,0.24c0,0.13-0.04,0.22-0.11,0.26c-0.08,0.05-0.19,0.07-0.34,0.07
		h-2.92c-0.22,0-0.44-0.16-0.64-0.48l-4.43-5.76l-1.37,1.43v4.12c0,0.07-0.01,0.14-0.03,0.22c-0.02,0.08-0.06,0.15-0.11,0.22
		c-0.05,0.07-0.12,0.13-0.2,0.17c-0.08,0.05-0.19,0.07-0.31,0.07h-2.03c-0.11,0-0.21-0.02-0.29-0.07c-0.08-0.05-0.14-0.1-0.19-0.17
		c-0.05-0.07-0.09-0.14-0.11-0.21c-0.02-0.07-0.03-0.13-0.03-0.18V3.56z"/>
	<path d="M172.12,2.82c0-0.46,0.23-0.69,0.68-0.69h1.92c0.21,0,0.39,0.06,0.52,0.17c0.13,0.11,0.19,0.29,0.19,0.52v1.71
		c0,0.18-0.06,0.34-0.18,0.5c-0.12,0.16-0.29,0.24-0.51,0.24h-1.92c-0.46,0-0.69-0.24-0.69-0.73V2.82z M172.12,7.89
		c0-0.2,0.06-0.36,0.17-0.5c0.11-0.13,0.28-0.2,0.5-0.2h1.9c0.08,0,0.17,0.02,0.26,0.05c0.09,0.03,0.17,0.08,0.23,0.15
		c0.07,0.06,0.13,0.14,0.17,0.22c0.05,0.08,0.07,0.18,0.07,0.28v13.16c0,0.46-0.24,0.69-0.72,0.69h-1.9c-0.46,0-0.69-0.23-0.69-0.69
		V7.89z"/>
</g>
</svg>
