<svg viewBox="0 0 20 20" fill="none" xmlns="http://www.w3.org/2000/svg">
<path d="M10 18.6667C14.6024 18.6667 18.3333 14.9357 18.3333 10.3333C18.3333 5.73096 14.6024 2 10 2C5.39763 2 1.66667 5.73096 1.66667 10.3333C1.66667 14.9357 5.39763 18.6667 10 18.6667Z" stroke="currentColor" stroke-linecap="round" stroke-linejoin="round"/>
<path fill-rule="evenodd" clip-rule="evenodd" d="M10 6C10.5523 6 11 6.44772 11 7V10.3333C11 10.8856 10.5523 11.3333 10 11.3333C9.44772 11.3333 9 10.8856 9 10.3333V7C9 6.44772 9.44772 6 10 6ZM10 12.8333C10.5523 12.8333 11 13.281 11 13.8333V14C11 14.5523 10.5523 15 10 15C9.44772 15 9 14.5523 9 14V13.8333C9 13.281 9.44772 12.8333 10 12.8333Z" fill="currentColor"/>
</svg>
