<svg viewBox="0 0 16 17" fill="none" xmlns="http://www.w3.org/2000/svg">
  <path
    d="M4.25 6.75H4.25833M8 6.75H8.00833M11.75 6.75H11.7583M6.25 14L7.46667 15.6222C7.6476 15.8635 7.73807 15.9841 7.84897 16.0272C7.94611 16.065 8.05389 16.065 8.15103 16.0272C8.26193 15.9841 8.3524 15.8635 8.53333 15.6222L9.75 14C9.99429 13.6743 10.1164 13.5114 10.2654 13.3871C10.4641 13.2213 10.6986 13.104 10.9504 13.0446C11.1393 13 11.3429 13 11.75 13C12.9149 13 13.4973 13 13.9567 12.8097C14.5693 12.556 15.056 12.0693 15.3097 11.4567C15.5 10.9973 15.5 10.4149 15.5 9.25V4.5C15.5 3.09987 15.5 2.3998 15.2275 1.86502C14.9878 1.39462 14.6054 1.01217 14.135 0.772484C13.6002 0.5 12.9001 0.5 11.5 0.5H4.5C3.09987 0.5 2.3998 0.5 1.86502 0.772484C1.39462 1.01217 1.01217 1.39462 0.772484 1.86502C0.5 2.3998 0.5 3.09987 0.5 4.5V9.25C0.5 10.4149 0.5 10.9973 0.690301 11.4567C0.944036 12.0693 1.43072 12.556 2.04329 12.8097C2.50272 13 3.08515 13 4.25 13C4.65715 13 4.86072 13 5.04959 13.0446C5.30141 13.104 5.53593 13.2213 5.73458 13.3871C5.88357 13.5114 6.00571 13.6743 6.25 14ZM4.66667 6.75C4.66667 6.98012 4.48012 7.16667 4.25 7.16667C4.01988 7.16667 3.83333 6.98012 3.83333 6.75C3.83333 6.51988 4.01988 6.33333 4.25 6.33333C4.48012 6.33333 4.66667 6.51988 4.66667 6.75ZM8.41667 6.75C8.41667 6.98012 8.23012 7.16667 8 7.16667C7.76988 7.16667 7.58333 6.98012 7.58333 6.75C7.58333 6.51988 7.76988 6.33333 8 6.33333C8.23012 6.33333 8.41667 6.51988 8.41667 6.75ZM12.1667 6.75C12.1667 6.98012 11.9801 7.16667 11.75 7.16667C11.5199 7.16667 11.3333 6.98012 11.3333 6.75C11.3333 6.51988 11.5199 6.33333 11.75 6.33333C11.9801 6.33333 12.1667 6.51988 12.1667 6.75Z"
    stroke="currentColor" stroke-linecap="round" stroke-linejoin="round" />
</svg>