<svg viewBox="0 0 32 32" fill="none" xmlns="http://www.w3.org/2000/svg">
<path d="M1.63018 16.5698C1.4259 16.2463 1.32376 16.0846 1.26659 15.8351C1.22364 15.6477 1.22364 15.3523 1.26659 15.1649C1.32376 14.9154 1.4259 14.7537 1.63018 14.4302C3.31829 11.7573 8.3431 5 16.0006 5C23.6581 5 28.6829 11.7573 30.371 14.4302C30.5753 14.7537 30.6774 14.9154 30.7346 15.1649C30.7776 15.3523 30.7776 15.6477 30.7346 15.8351C30.6774 16.0846 30.5753 16.2463 30.371 16.5698C28.6829 19.2427 23.6581 26 16.0006 26C8.3431 26 3.31829 19.2427 1.63018 16.5698Z" stroke="#666666" stroke-linecap="round" stroke-linejoin="round"/>
<path d="M16.0006 20C18.4859 20 20.5006 17.9853 20.5006 15.5C20.5006 13.0147 18.4859 11 16.0006 11C13.5153 11 11.5006 13.0147 11.5006 15.5C11.5006 17.9853 13.5153 20 16.0006 20Z" stroke="#666666" stroke-linecap="round" stroke-linejoin="round"/>
</svg>
