<svg viewBox="0 0 41 45" fill="none" xmlns="http://www.w3.org/2000/svg">
<g clip-path="url(#clip0_440_279)">
<path d="M19.791 0.168313L0.848758 9.79986C0.329518 10.0671 0 10.6017 0 11.1758V33.8243C0 34.4083 0.329518 34.9329 0.848758 35.2002L19.791 44.8318C20.2404 45.0594 20.7696 45.0594 21.2189 44.8318L40.1612 35.2002C40.6805 34.9329 41.01 34.4083 41.01 33.8243V11.1758C41.01 10.5918 40.6805 10.0671 40.1612 9.79986L21.209 0.168313C20.7696 -0.0593596 20.2304 -0.0593596 19.791 0.168313Z" fill="#1D1D1B"/>
<path d="M20.0506 2.60331L5.39208 9.84924C4.65316 10.2155 4.65316 11.2351 5.39208 11.6013L20.0506 18.8572C20.3402 19.0056 20.6897 19.0056 20.9793 18.8572L35.6378 11.6013C36.3767 11.2351 36.3767 10.2155 35.6378 9.84924L20.9793 2.60331C20.6897 2.45482 20.3402 2.45482 20.0506 2.60331Z" fill="white"/>
<path d="M21.7981 40.021V21.8171C21.7981 21.431 22.0178 21.0747 22.3573 20.9064L37.4352 13.2447C38.1242 12.8982 38.943 13.3932 38.943 14.1554V32.3494C38.943 32.7355 38.7233 33.0918 38.3838 33.2601L23.3059 40.9218C22.6169 41.288 21.7981 40.7832 21.7981 40.021Z" fill="#FC3D3D"/>
<path d="M19.6312 40.0209V21.8169C19.6312 21.4309 19.4116 21.0745 19.0721 20.9062L3.99412 13.2545C3.30513 12.908 2.48633 13.4029 2.48633 14.1652V32.3592C2.48633 32.7452 2.70601 33.1016 3.04551 33.2699L18.1234 40.9315C18.8124 41.2879 19.6312 40.7831 19.6312 40.0209Z" fill="#3F454C"/>
<path d="M15.8567 29.8648C15.8567 30.3795 15.7869 30.8447 15.657 31.2407C15.5272 31.6465 15.3375 31.9831 15.0879 32.2702C14.8382 32.5572 14.5487 32.7849 14.2092 32.9532C13.8697 33.1215 13.4902 33.2205 13.0708 33.2601C12.6614 33.2996 12.2121 33.2601 11.7328 33.1611C11.2535 33.0621 10.7542 32.8938 10.235 32.6463L6.61028 30.9536C6.52041 30.914 6.44053 30.8546 6.38062 30.7854C6.31072 30.7161 6.28076 30.6171 6.28076 30.4884V20.2926C6.28076 20.1936 6.31072 20.1243 6.36064 20.0847C6.42056 20.0451 6.50044 20.055 6.61028 20.1045L10.235 21.7972C10.7542 22.0348 11.2435 22.3318 11.7228 22.6782C12.2021 23.0247 12.6514 23.4107 13.0608 23.8463C13.4802 24.2719 13.8497 24.7273 14.1992 25.2123C14.5387 25.6974 14.8382 26.2022 15.0779 26.7169C15.3175 27.2317 15.5073 27.7563 15.6471 28.2908C15.7868 28.8353 15.8567 29.35 15.8567 29.8648ZM9.11661 23.9057V29.5183L9.73571 29.8054C9.84554 29.8549 9.95538 29.9044 10.0652 29.944C10.1751 29.9835 10.2849 30.033 10.3848 30.0726C10.7542 30.2112 11.0937 30.2904 11.4133 30.2904C11.7328 30.2904 12.0124 30.231 12.252 30.0924C12.4917 29.9538 12.6714 29.7658 12.8112 29.4985C12.951 29.2312 13.0109 28.9145 13.0109 28.5284C13.0109 28.1226 12.931 27.7068 12.7812 27.2911C12.6315 26.8753 12.4218 26.4794 12.1522 26.1032C11.8826 25.7271 11.573 25.3905 11.2235 25.0836C10.8641 24.7768 10.4846 24.5293 10.0852 24.3412L9.11661 23.9057Z" fill="white"/>
<path d="M23.5555 27.2711C23.4557 27.1227 23.4357 26.9643 23.5056 26.796C23.5655 26.6277 23.7153 26.4792 23.945 26.3506L25.8422 25.3607C25.972 25.2914 26.0818 25.2716 26.1817 25.2815C26.2816 25.2914 26.3415 25.3607 26.3814 25.4696C26.4613 25.6774 26.5611 25.915 26.661 26.1823C26.7609 26.4495 26.8707 26.7168 26.9805 26.9841C27.0904 27.2514 27.2002 27.5186 27.31 27.7859C27.4199 28.0532 27.5197 28.3006 27.6096 28.5184C27.6995 28.7461 27.7794 28.9341 27.8493 29.1024C27.9192 29.2707 27.9691 29.3895 28.009 29.4588L29.5967 23.7967C29.6566 23.6086 29.7365 23.47 29.8164 23.371C29.8963 23.272 30.0161 23.1928 30.1659 23.1136L31.9233 22.1931C32.0631 22.1139 32.1729 22.0743 32.2528 22.0743C32.3227 22.0644 32.3726 22.0941 32.4026 22.1337C32.4226 22.1832 32.4325 22.2426 32.4126 22.3217C32.4026 22.4009 32.3726 22.4999 32.3427 22.5989L31.5239 24.9746C31.5538 25.0439 31.6237 25.1429 31.7236 25.2815C31.8234 25.43 31.9333 25.5884 32.0631 25.7764C32.1929 25.9546 32.3127 26.1526 32.4525 26.3605C32.5823 26.5683 32.6922 26.7663 32.782 26.9544L34.6094 21.2032C34.6793 21.0151 34.7392 20.8765 34.8091 20.7874C34.879 20.6983 34.9788 20.6191 35.1086 20.5499L36.7462 19.6986C36.9859 19.5699 37.1457 19.5303 37.2355 19.5699C37.3254 19.6095 37.3254 19.7678 37.2455 20.0549L33.7406 30.1319C33.7007 30.2408 33.6308 30.3497 33.5409 30.4586C33.4511 30.5675 33.3113 30.6664 33.1415 30.7555L32.3627 31.1614C32.1729 31.2604 32.0331 31.3099 31.9433 31.2901C31.8534 31.2802 31.7835 31.2406 31.7236 31.1713L30.3456 28.6075L28.9776 32.6165C28.9277 32.7353 28.8578 32.8343 28.7879 32.9333C28.718 33.0323 28.5982 33.1213 28.4484 33.2005L27.5597 33.6559C27.36 33.7549 27.2202 33.8044 27.1403 33.7945C27.0604 33.7846 27.0005 33.7351 26.9606 33.6658L23.5555 27.2711Z" fill="white"/>
<path d="M20.51 11.8292C22.1093 11.8292 23.4058 11.0359 23.4058 10.0573C23.4058 9.0787 22.1093 8.2854 20.51 8.2854C18.9107 8.2854 17.6143 9.0787 17.6143 10.0573C17.6143 11.0359 18.9107 11.8292 20.51 11.8292Z" fill="black"/>
</g>
<defs>
<clipPath id="clip0_440_279">
<rect width="41" height="45" fill="white"/>
</clipPath>
</defs>
</svg>
