<svg viewBox="0 0 23 15" fill="none" xmlns="http://www.w3.org/2000/svg">
<g>
<path d="M16.2499 12.25H11.5833M5.45825 12.5416L8.69533 11.2966C8.90237 11.217 9.0059 11.1772 9.10275 11.1252C9.18879 11.079 9.2708 11.0257 9.34794 10.9658C9.43479 10.8984 9.51322 10.82 9.67008 10.6631L16.2499 4.08331C16.8943 3.43898 16.8943 2.39431 16.2499 1.74997C15.6056 1.10564 14.5609 1.10564 13.9166 1.74997L7.33675 8.32981C7.17989 8.48667 7.10146 8.5651 7.03406 8.65195C6.9742 8.72909 6.9209 8.81111 6.87472 8.89714C6.82273 8.99399 6.78291 9.09752 6.70328 9.30457L5.45825 12.5416ZM5.45825 12.5416L6.65882 9.4202C6.74473 9.19683 6.78769 9.08515 6.86137 9.03399C6.92576 8.98928 7.00543 8.97237 7.08242 8.98708C7.17053 9.0039 7.25514 9.08851 7.42437 9.25774L8.74217 10.5755C8.91139 10.7448 8.99601 10.8294 9.01283 10.9175C9.02753 10.9945 9.01063 11.0742 8.96592 11.1385C8.91476 11.2122 8.80308 11.2552 8.57971 11.3411L5.45825 12.5416Z" stroke="currentColor" stroke-linecap="round" stroke-linejoin="round"/>
</g>
</svg>
