<svg viewBox="0 0 22 28" fill="none" xmlns="http://www.w3.org/2000/svg">
  <path
    d="M1.66663 4.65285C1.66663 3.35796 1.66663 2.71052 1.93661 2.35362C2.17182 2.0427 2.53132 1.8503 2.92049 1.82707C3.36721 1.8004 3.90591 2.15953 4.98332 2.8778L19.0041 12.225C19.8943 12.8185 20.3394 13.1152 20.4946 13.4892C20.6302 13.8163 20.6302 14.1838 20.4946 14.5108C20.3394 14.8848 19.8943 15.1815 19.0041 15.775L4.98332 25.1222C3.90591 25.8405 3.36721 26.1996 2.92049 26.1729C2.53132 26.1497 2.17182 25.9573 1.93661 25.6464C1.66663 25.2895 1.66663 24.6421 1.66663 23.3472V4.65285Z"
    fill="currentColor" stroke="currentColor" stroke-width="2" stroke-linecap="round" stroke-linejoin="round" />
</svg>